<svg width="107" height="107" viewBox="0 0 107 107" fill="none" xmlns="http://www.w3.org/2000/svg">
<circle cx="53.5" cy="53.5" r="53.5" fill="#FF681A"/>
<path d="M70.2497 72.4019C70.7433 69.6732 71.1894 67.2055 71.6212 64.79C69.9318 67.0726 68.8783 69.7254 68.5651 72.6202C68.2898 75.1591 68.1949 77.7264 68.1474 80.2843C68.1285 81.3473 67.8153 81.7459 66.7617 81.6605C65.974 81.5941 65.172 81.6463 64.7971 81.6463C63.5205 78.0918 62.3056 74.8222 61.1667 71.5287C59.5342 66.7926 58.8271 62.0423 61.2047 57.3015C59.1214 58.3788 56.9147 62.1183 56.5825 64.9846C56.2076 68.2353 57.152 71.1538 58.6326 74.1008C57.4414 73.4886 56.274 72.829 55.0639 72.2643C48.3205 69.137 41.3302 67.8509 34.0505 69.9722C29.9361 71.1728 26.3342 73.2419 24.6923 77.5698C24.4123 78.3101 24.175 79.1264 24.1797 79.9047C24.194 81.2571 23.6957 81.8124 22.3432 81.5798C21.9351 81.5087 21.5175 81.5182 21.0097 81.4849C20.8721 77.8925 20.4829 74.3571 22.7418 71.282C23.8191 69.8203 23.6767 68.1309 23.7669 66.5032C23.933 63.428 24.4977 60.4763 26.078 57.7951C27.4494 55.4745 29.1626 53.9606 32.1476 53.5525C41.2638 52.3092 49.7536 49.3527 56.7581 43.0601C57.8116 42.1109 58.6041 40.6113 59.8142 40.1653C60.9057 39.7571 62.4006 40.5307 63.7246 40.6161C65.4282 40.7252 67.1414 40.6635 68.8498 40.673C70.3114 40.6825 71.3839 41.1713 72.2951 42.4858C72.95 43.4255 74.2313 43.9332 75.2326 44.6356C75.3702 44.498 75.5078 44.3651 75.6454 44.2275C75.5126 43.8715 75.4746 43.4255 75.2326 43.1787C74.0082 41.9259 72.8645 40.5212 71.4266 39.5721C70.3968 38.8934 68.9684 38.6989 67.6871 38.547C66.0926 38.3619 64.4554 38.5565 62.8609 38.3809C60.6874 38.1436 59.0265 37.0806 58.2482 34.9072C57.4747 32.7384 57.9018 30.7928 59.3871 29.0844C60.4976 27.8078 61.6745 26.5929 62.8229 25.3448C62.9605 25.4303 63.0934 25.5204 63.231 25.6059C63.0792 27.1766 62.9178 28.7474 62.7707 30.3182C62.6046 32.112 63.5632 33.2557 65.3808 33.2652C72.4042 33.2937 79.4277 33.3032 86.4511 33.2747C88.3968 33.2652 89.2984 32.2212 89.1608 30.2707C89.0517 28.7617 88.8761 27.2573 88.7242 25.7055C92.0461 27.3522 94.4094 31.2009 93.9444 34.1099C93.5789 36.3973 91.918 38.3287 89.6116 38.305C86.546 38.2765 84.2966 39.0833 83.1956 42.1299C82.9773 42.7374 82.6072 43.2926 82.3082 43.8715C82.4601 43.9854 82.6072 44.1041 82.759 44.218C83.4946 43.5394 84.3441 42.9462 84.9325 42.1584C85.6871 41.1476 86.565 40.6778 87.8131 40.6778C88.933 40.6778 90.0577 40.5212 91.173 40.431C91.0069 42.0825 89.754 43.3163 87.9792 43.174C86.3704 43.0458 85.445 43.4539 85.3264 45.1576C85.3122 45.3806 85.2078 45.6416 85.0559 45.8077C84.0261 46.9277 82.8824 47.9385 82.8065 49.6659C82.7923 49.9459 81.9428 50.373 81.454 50.4109C79.9924 50.5153 78.5165 50.4584 77.0454 50.4679C75.9776 50.4726 75.3465 49.8557 75.076 48.9256C74.7533 47.8246 74.0557 47.2884 72.6225 47.1318C73.6001 49.011 74.4543 50.7526 75.4271 52.4278C75.5932 52.7125 76.2576 52.798 76.6942 52.8169C77.9186 52.8691 79.1429 52.8359 80.3768 52.8359C79.8453 60.6566 76.7654 69.2176 70.2497 72.4019Z" fill="white"/>
<path d="M15.5427 72.9666C13.113 70.9972 12.0832 66.5317 13.2506 63.1813C14.6553 59.157 17.7304 56.9693 21.5744 55.6928C23.0882 55.1897 24.6732 54.9145 26.467 54.4779C25.4895 56.0012 24.7064 57.3252 23.8095 58.5638C23.577 58.8818 22.9933 58.972 22.5519 59.1001C20.5351 59.6791 18.8457 60.7421 17.5406 62.3983C16.0315 64.306 15.6946 66.3656 16.6342 68.6529C16.8146 69.0943 16.7386 69.7159 16.5963 70.1952C16.3163 71.1349 15.9082 72.0365 15.5427 72.9666Z" fill="white"/>
<path d="M40.2529 71.8324C39.1851 74.7035 39.1567 77.5746 40.0963 80.4694C40.1865 80.7494 40.0061 81.3995 39.9065 81.409C39.4319 81.4565 38.8435 81.4944 38.4781 81.2571C36.0578 79.6769 34.1406 77.6173 32.8403 75.012C32.5508 74.433 32.3183 73.8256 31.9007 72.8717C34.7433 72.3402 37.3913 71.8467 40.0393 71.3531C40.1105 71.5098 40.1817 71.6711 40.2529 71.8324Z" fill="white"/>
</svg>
